<?xml version="1.0" standalone="no"?>
<!DOCTYPE svg PUBLIC "-//W3C//DTD SVG 20010904//EN"
 "http://www.w3.org/TR/2001/REC-SVG-20010904/DTD/svg10.dtd">
<svg version="1.0" xmlns="http://www.w3.org/2000/svg"
 width="832.000000pt" height="832.000000pt" viewBox="0 0 832.000000 832.000000"
 preserveAspectRatio="xMidYMid meet">
<metadata>
Created by potrace 1.14, written by Peter Selinger 2001-2017
</metadata>
<g transform="translate(0.000000,832.000000) scale(0.100000,-0.100000)"
fill="#000000" stroke="none">
<path d="M4628 7623 c-39 -6 -93 -72 -112 -136 -9 -30 -16 -88 -16 -128 0 -88
-15 -81 -24 11 -4 36 -10 91 -14 123 l-7 58 -33 -32 c-73 -72 -106 -173 -106
-327 0 -121 -7 -123 -38 -12 -12 43 -12 44 -16 14 -2 -17 3 -69 12 -115 8 -46
13 -85 11 -87 -1 -1 -33 44 -71 100 -81 122 -228 275 -294 305 -111 51 -134
31 -126 -114 4 -90 4 -91 -20 -97 -43 -11 -101 -73 -130 -141 -16 -36 -31 -65
-34 -64 -3 0 -45 44 -93 97 -97 108 -172 209 -292 398 -114 180 -141 182 -171
12 -20 -110 -11 -206 31 -335 18 -57 30 -103 25 -103 -4 0 -28 16 -53 35 -25
19 -48 35 -51 35 -8 0 5 -54 25 -98 24 -57 84 -138 131 -181 21 -19 38 -38 38
-42 0 -5 -29 -6 -65 -2 -61 6 -65 5 -59 -13 14 -39 45 -72 101 -110 32 -21 60
-42 63 -45 3 -4 37 -23 75 -42 39 -20 63 -36 55 -37 -8 0 -71 7 -140 15 -482
60 -566 84 -852 244 -32 18 -58 30 -58 26 0 -19 89 -131 161 -202 46 -45 80
-85 77 -88 -13 -13 -208 68 -208 87 0 4 -3 7 -7 6 -5 -1 -19 4 -32 11 l-24 13
8 -48 c10 -68 47 -137 103 -189 46 -43 148 -115 164 -115 4 0 8 -4 8 -9 0 -5
-25 -17 -55 -26 -31 -9 -58 -22 -61 -30 -15 -37 91 -84 209 -92 114 -8 105
-21 -30 -44 -40 -7 -73 -15 -73 -19 0 -4 17 -16 38 -26 54 -27 211 -26 310 3
l73 22 -39 -47 c-40 -49 -72 -97 -72 -108 0 -3 30 22 66 55 62 57 106 83 72
44 -45 -54 -118 -145 -118 -148 0 -8 33 8 141 66 58 31 116 60 128 64 25 8 29
-10 4 -24 -10 -5 -52 -50 -93 -101 l-75 -91 -65 6 c-36 3 -77 8 -91 11 -25 5
-28 0 -58 -73 -35 -88 -37 -99 -16 -107 8 -3 14 -2 13 2 -2 4 10 38 27 75 l29
69 35 -6 c20 -3 47 -6 61 -7 l25 0 -25 -12 c-14 -6 -30 -18 -37 -27 -14 -17
-17 -44 -4 -36 4 3 1 -10 -7 -29 -14 -30 -21 -35 -52 -36 l-35 -1 38 -15 c20
-9 37 -18 37 -22 0 -3 -27 -21 -59 -38 -85 -47 -114 -74 -176 -166 -31 -45
-79 -109 -106 -142 -61 -73 -110 -171 -145 -290 -22 -75 -27 -116 -31 -245
-12 -381 106 -699 290 -780 47 -21 47 -21 47 -70 0 -59 14 -94 46 -111 30 -15
31 -29 3 -29 -33 0 -17 -24 27 -39 101 -35 269 -21 407 34 90 37 73 8 -52 -88
-29 -23 -49 -43 -43 -45 6 -2 37 8 71 22 33 15 63 26 67 26 16 0 -27 -37 -91
-78 -86 -55 -82 -51 -65 -62 19 -12 119 -4 172 14 23 8 43 14 45 13 1 -1 -13
-21 -30 -44 -27 -35 -45 -46 -122 -74 -162 -57 -259 -129 -309 -228 -22 -43
-48 -121 -41 -121 2 0 17 25 35 56 37 66 99 135 147 165 52 32 49 17 -6 -30
-45 -37 -161 -196 -161 -220 0 -5 -15 -21 -32 -35 -18 -14 -40 -31 -49 -38 -9
-7 -24 -18 -34 -24 -26 -15 -33 -39 -9 -31 14 5 12 2 -6 -13 -59 -49 -139
-134 -161 -173 l-23 -42 24 17 c60 42 132 80 164 85 l34 5 -19 -53 c-10 -30
-18 -77 -19 -106 0 -48 -4 -56 -55 -114 -52 -60 -66 -88 -28 -58 9 8 -13 -23
-50 -68 -86 -104 -133 -182 -157 -262 -26 -84 -26 -86 15 -61 20 12 45 20 55
17 17 -4 20 0 20 27 0 58 29 132 69 177 43 49 59 47 42 -3 -16 -46 -24 -212
-14 -278 l9 -55 17 30 c9 17 27 42 40 58 l23 27 -20 -81 c-17 -72 -18 -88 -7
-142 16 -78 40 -124 87 -170 44 -42 49 -44 63 -20 5 10 11 16 14 13 2 -3 18
-26 37 -52 33 -48 85 -89 130 -103 l24 -8 -28 34 c-16 19 -37 54 -48 79 -19
44 -40 170 -29 170 3 0 17 -21 31 -47 61 -116 192 -218 316 -246 l58 -13 11
-51 c26 -113 102 -189 240 -238 96 -34 117 -32 174 11 2 2 -15 20 -38 42 -35
33 -41 45 -41 79 0 61 19 70 60 28 38 -39 55 -45 47 -15 -8 30 4 24 52 -27 40
-41 46 -44 52 -27 4 10 8 15 8 9 1 -5 5 -4 10 3 6 10 10 7 15 -13 5 -18 12
-25 21 -21 10 3 15 -1 15 -13 0 -10 -7 -21 -15 -25 -8 -3 -15 -12 -15 -20 0
-9 -9 -20 -20 -26 -11 -6 -18 -15 -15 -21 4 -5 2 -9 -4 -9 -5 0 -33 -25 -62
-55 -36 -38 -56 -52 -63 -45 -6 6 -16 4 -30 -8 -11 -9 -16 -11 -12 -4 12 21
-38 14 -54 -8 -17 -24 -45 -27 -36 -4 5 13 1 14 -27 9 -17 -4 -33 -11 -35 -16
-2 -5 -10 -9 -17 -9 -7 0 -16 -7 -19 -16 -5 -13 -14 -14 -49 -8 -56 10 -85 9
-114 -7 -49 -27 -70 -111 -35 -142 15 -14 48 -17 197 -19 l178 -3 14 -42 c11
-33 23 -47 50 -60 30 -14 38 -14 57 -3 11 8 44 25 71 38 28 13 64 35 81 48 31
23 33 23 222 17 l190 -6 21 34 c29 48 26 68 -16 106 -34 32 -43 35 -128 42
-70 6 -98 13 -127 32 -44 28 -55 61 -33 95 8 13 15 33 15 44 0 12 10 25 23 31
13 6 31 24 41 40 20 34 47 37 141 14 33 -8 92 -15 130 -14 l70 0 -37 19 c-20
11 -39 24 -42 28 -3 5 67 12 156 16 139 5 163 4 171 -9 4 -8 17 -15 28 -15 10
0 43 -13 72 -30 36 -20 67 -30 95 -30 39 0 42 -2 43 -27 2 -47 -2 -73 -15 -96
-18 -32 -91 -107 -104 -107 -7 0 -12 -4 -12 -8 0 -16 -51 -32 -100 -32 -27 0
-52 -5 -55 -10 -3 -6 -14 -10 -24 -10 -10 0 -26 -9 -36 -20 -10 -11 -30 -21
-44 -21 -24 -2 -24 -2 -3 -6 52 -10 -2 -37 -60 -29 -15 2 -25 0 -22 -5 2 -4
-4 -13 -15 -18 -14 -8 -21 -8 -25 2 -3 8 -9 6 -20 -7 -9 -11 -16 -15 -16 -9 0
15 31 40 70 57 34 15 34 15 8 16 -14 0 -40 -11 -56 -25 -33 -27 -57 -81 -41
-90 5 -4 9 -15 9 -27 0 -18 4 -19 43 -14 80 12 355 29 371 23 8 -3 27 -24 41
-47 14 -22 37 -46 50 -52 39 -18 99 6 148 57 l42 43 95 7 c52 3 133 2 180 -4
47 -6 132 -15 190 -21 58 -6 117 -15 132 -20 l28 -9 -16 37 c-15 36 -60 92
-75 92 -4 0 8 -15 27 -34 19 -19 34 -41 34 -50 0 -13 -4 -13 -27 -2 -61 30
-119 44 -138 33 -15 -8 -23 -5 -41 17 -13 14 -29 26 -37 26 -16 0 -57 41 -57
58 0 7 -4 12 -10 12 -5 0 -10 -10 -10 -21 0 -16 -5 -20 -20 -16 -11 3 -23 1
-26 -4 -9 -15 -36 -10 -50 9 -10 14 -15 15 -25 5 -21 -21 -56 -15 -77 13 l-19
27 -45 -79 c-49 -83 -89 -131 -132 -153 -22 -12 -30 -12 -51 -1 -27 14 -47 61
-38 88 4 13 2 13 -10 -3 -15 -20 -15 -20 -20 5 -9 43 -6 74 6 89 9 12 9 13 0
7 -9 -5 -11 -2 -6 11 10 30 15 36 22 25 3 -5 15 2 26 17 15 20 15 23 2 12 -15
-12 -17 -11 -17 3 0 9 7 19 15 22 8 4 13 9 10 14 -2 4 7 5 22 2 18 -3 24 -1
19 7 -5 7 1 20 13 30 11 10 17 21 14 25 -4 4 -1 11 7 17 13 8 13 10 0 19 -13
8 -13 10 2 10 23 0 34 20 17 31 -11 7 -10 9 5 9 11 0 17 3 14 6 -3 3 4 16 17
30 15 17 33 24 56 23 28 0 31 -2 14 -9 -11 -5 -14 -9 -7 -9 7 -1 17 -11 22
-23 8 -22 9 -21 10 7 1 69 7 75 74 75 83 1 126 12 160 43 15 14 37 27 49 29
13 2 22 10 22 20 0 9 21 35 48 58 56 50 62 42 10 -13 l-38 -39 35 17 c19 10
60 42 91 71 60 58 77 67 58 32 -11 -21 -11 -22 4 -9 36 29 114 192 101 212 -7
13 7 60 17 53 5 -3 9 4 9 15 0 25 20 38 31 20 5 -8 9 -44 9 -81 0 -38 4 -68 9
-68 17 0 61 65 77 114 9 25 18 46 20 46 13 0 37 -72 38 -117 1 -48 3 -52 21
-47 37 11 80 78 100 154 10 41 12 43 23 24 6 -11 12 -60 14 -107 3 -84 4 -87
27 -87 24 0 24 0 5 -21 l-19 -22 25 13 c140 71 169 323 67 575 -33 79 -34 85
-14 71 53 -39 75 -31 96 34 12 39 12 54 -2 125 -9 44 -23 101 -31 126 l-14 46
44 -5 c33 -3 45 -1 49 11 6 14 -46 161 -79 226 -19 35 -8 41 19 10 29 -31 115
-90 115 -78 0 22 -68 108 -165 209 -55 58 -121 129 -145 159 -25 30 -63 75
-86 101 -60 69 -97 120 -92 125 6 6 73 -17 119 -41 30 -15 56 -33 107 -75 8
-7 12 -6 12 2 0 20 -63 96 -95 115 -16 9 -39 25 -50 34 -35 31 -302 140 -402
165 -52 13 -97 26 -100 29 -3 3 -3 12 0 21 8 20 112 20 222 0 125 -22 126 -22
62 36 -32 28 -64 64 -73 80 l-15 30 49 -35 c41 -30 138 -66 177 -66 6 0 -12
24 -40 53 -48 51 -105 151 -93 163 3 3 26 -10 51 -29 75 -58 127 -72 254 -72
l111 0 88 45 c47 25 86 50 86 55 -1 6 14 26 32 45 38 40 70 99 81 150 5 22 20
46 42 64 40 34 92 133 123 235 12 40 35 106 51 146 116 292 85 643 -83 922
-44 74 -107 144 -127 142 -30 -3 -42 1 -36 11 7 12 -16 70 -27 70 -5 0 -8 7
-8 15 0 8 -4 15 -10 15 -5 0 -10 6 -10 13 0 6 -14 24 -32 38 l-31 26 36 12
c41 14 44 25 22 78 -29 69 -67 85 -146 62 -27 -9 -36 -16 -32 -28 4 -13 3 -13
-5 -2 -7 9 -21 12 -43 8 -33 -5 -33 -5 -7 6 l27 10 -27 31 c-15 17 -75 79
-133 138 -107 107 -159 148 -191 148 -32 0 -19 18 19 25 135 25 223 132 223
272 0 32 -3 41 -14 37 -10 -4 -14 10 -18 58 -3 35 -14 79 -24 98 l-18 35 -8
-44 c-9 -55 -15 -61 -23 -25 -15 67 -34 98 -79 134 -18 14 -19 13 -12 -13 4
-18 3 -26 -3 -23 -5 4 -12 20 -16 36 -12 54 -25 43 -25 -22 0 -74 -22 -183
-45 -230 -21 -41 -81 -105 -117 -124 -35 -18 -35 -12 2 47 52 80 74 154 76
254 1 50 7 103 13 119 7 16 14 71 18 122 5 81 3 101 -16 155 -30 82 -81 166
-126 209 l-37 35 7 -43 c16 -98 -51 -250 -140 -320 -22 -17 -41 -27 -43 -22
-2 6 4 33 13 61 22 66 17 270 -9 339 -24 64 -77 140 -103 146 -27 7 -26 5 -13
38 6 17 6 27 -2 32 -17 11 -86 6 -111 -8 -13 -8 -61 -13 -119 -13 -92 0 -98
-1 -126 -28 l-29 -28 -17 44 c-22 60 -76 120 -128 145 -45 21 -133 33 -180 25z
m-1023 -976 c-47 -50 -81 -130 -96 -231 -16 -100 -27 -125 -28 -59 -1 70 16
147 46 208 26 52 89 125 108 125 7 0 -7 -19 -30 -43z m-161 -303 c-11 -26 -17
-68 -17 -124 0 -67 -2 -78 -8 -50 -5 19 -7 58 -4 85 4 40 3 45 -5 26 -13 -29
-17 -242 -7 -291 l8 -35 -17 30 c-24 41 -24 209 -1 285 17 56 54 126 63 118 2
-3 -3 -22 -12 -44z m1220 -270 c11 -10 16 -34 16 -71 0 -51 1 -54 17 -42 19
16 15 7 -17 -41 -10 -14 -21 -36 -25 -50 -6 -19 12 -6 73 52 99 94 154 126
188 107 28 -15 31 -52 10 -122 -8 -26 -13 -47 -11 -47 1 0 29 12 61 27 65 30
194 43 194 20 0 -7 -14 -39 -30 -71 -17 -32 -30 -69 -30 -81 l0 -22 98 29
c119 36 231 41 262 13 32 -29 23 -87 -22 -141 -64 -76 -160 -150 -180 -138 -7
4 -8 3 -4 -4 4 -7 -6 -18 -25 -27 -29 -15 -32 -15 -50 1 -17 15 -17 40 0 30 4
-3 8 1 8 9 0 8 -6 16 -13 19 -9 3 -11 -1 -7 -11 4 -9 2 -14 -3 -10 -6 3 -16 2
-24 -3 -10 -6 -21 -3 -34 8 -11 9 -16 11 -12 5 4 -7 -2 -22 -13 -34 l-19 -21
-18 20 c-14 17 -21 18 -40 10 -13 -6 -24 -16 -24 -21 0 -5 6 -5 13 2 8 6 17 8
20 4 4 -3 7 0 7 8 0 12 2 12 9 -1 13 -19 5 -30 -19 -25 -11 2 -20 -2 -20 -8 0
-7 -5 -4 -11 6 -6 10 -8 25 -5 33 8 20 -7 18 -36 -6 -14 -10 -29 -16 -33 -12
-5 4 -6 0 -2 -9 4 -13 1 -16 -15 -11 -12 3 -16 7 -8 12 8 5 6 11 -4 20 -9 7
-13 17 -9 23 3 6 1 7 -5 3 -6 -4 -9 -13 -5 -21 7 -19 -10 -18 -62 0 -46 17
-67 19 -45 5 9 -6 10 -10 3 -10 -19 0 -26 20 -9 26 8 3 18 14 21 24 7 23 -12
71 -27 69 -27 -3 -36 2 -34 18 0 12 -7 19 -22 21 -13 2 -20 8 -16 14 4 7 2 8
-5 4 -8 -5 -9 -12 -2 -19 7 -9 1 -12 -21 -12 -16 0 -35 7 -42 17 -9 12 -16 14
-29 7 -9 -6 -17 -7 -17 -3 0 3 -6 1 -14 -5 -10 -9 -17 -7 -27 6 -12 15 -12 16
1 8 13 -8 13 -7 0 9 -8 11 -16 14 -18 7 -3 -8 -9 -8 -23 -1 -10 6 -19 7 -19 3
0 -4 -4 -2 -8 5 -5 7 -22 15 -37 18 -16 3 -36 10 -45 17 -8 6 -12 7 -7 2 4 -5
-7 -15 -24 -22 -28 -12 -33 -11 -44 4 -7 10 -11 21 -8 26 6 11 -21 4 -29 -7
-3 -5 -14 -11 -22 -12 -27 -4 -19 55 14 114 43 74 155 189 215 220 47 24 129
49 167 51 9 1 24 -6 32 -15z m-390 -131 c-10 -16 -31 -50 -46 -78 -29 -52 -37
-56 -16 -8 15 34 67 113 75 113 3 0 -3 -12 -13 -27z m-904 14 c0 -2 -12 -32
-26 -67 -18 -45 -24 -74 -20 -99 4 -26 3 -31 -4 -16 l-9 20 -1 -20 c-1 -11 -3
-40 -5 -65 -5 -51 12 -191 23 -200 4 -3 13 -17 20 -31 18 -34 62 -85 62 -71 0
6 -5 23 -11 39 -6 15 -17 62 -25 103 -8 41 -17 83 -20 94 -4 12 -2 16 5 12 6
-4 11 -19 12 -34 l1 -27 7 25 c5 14 14 48 20 75 15 61 55 125 79 125 16 -1 16
-1 -1 -11 -20 -12 -52 -71 -62 -116 -12 -57 -7 -196 9 -248 8 -27 13 -51 11
-53 -2 -3 5 -23 17 -45 l20 -41 -26 17 -27 18 7 -28 c4 -15 20 -56 37 -91 34
-70 30 -91 -9 -44 -15 17 -31 29 -36 26 -5 -3 -4 -12 4 -21 6 -8 13 -23 15
-33 2 -13 -3 -16 -22 -12 -17 3 -27 -1 -31 -12 -3 -9 -15 -16 -25 -16 -11 0
-45 -9 -76 -20 -31 -11 -60 -17 -66 -13 -6 4 -7 1 -2 -7 6 -10 4 -12 -11 -6
-14 5 -16 4 -8 -4 9 -9 17 -9 33 -1 40 22 12 -16 -45 -60 -35 -27 -51 -45 -43
-49 8 -5 8 -10 1 -14 -6 -4 -9 -13 -6 -20 8 -20 -22 -73 -52 -92 -17 -12 -21
-19 -13 -24 8 -6 5 -11 -10 -19 -12 -7 -19 -16 -16 -21 3 -4 -9 -13 -27 -19
-50 -18 -66 -12 -26 9 53 29 56 42 3 16 -24 -11 -45 -27 -45 -33 0 -7 -6 -13
-14 -13 -8 0 -22 -3 -31 -7 -15 -5 -16 -3 -7 13 18 33 114 135 167 177 32 26
41 37 25 31 -40 -14 -142 -11 -148 4 -9 28 160 167 218 179 l31 6 -53 27 c-29
15 -52 32 -50 39 1 7 -2 10 -6 7 -5 -3 -18 4 -28 15 -27 30 -4 40 88 37 l77
-3 -32 26 c-18 15 -54 54 -81 89 l-49 62 34 -7 c129 -26 168 -38 166 -48 -1
-6 17 -16 39 -22 23 -5 51 -19 63 -29 38 -35 22 2 -45 101 -54 80 -58 91 -27
58 21 -22 46 -51 56 -65 9 -14 4 2 -13 35 -67 136 -67 307 2 468 11 26 24 47
29 47 5 0 9 -1 9 -3z m547 -20 c-1 -6 4 -12 11 -13 22 -3 23 -4 10 -18 -11
-12 -14 -11 -21 7 -6 16 -10 18 -16 8 -6 -9 -8 -5 -8 12 0 17 4 24 13 20 7 -3
12 -10 11 -16z m-18 -106 c0 -14 -1 -14 -6 -1 -3 8 -13 24 -22 35 -16 20 -16
20 7 1 12 -11 22 -26 21 -35z m89 29 c7 -11 12 -23 11 -26 0 -3 12 -20 28 -37
l28 -30 -27 19 c-15 10 -32 32 -39 47 -7 17 -17 26 -25 23 -8 -3 -14 1 -14 9
0 22 23 18 38 -5z m-129 -41 c-10 -20 -5 -39 12 -39 5 0 9 5 9 11 0 5 -4 7
-10 4 -6 -4 -7 1 -3 11 4 11 8 13 11 6 2 -7 7 -10 12 -7 5 3 7 -3 6 -12 -2
-10 4 -24 12 -32 12 -13 12 -16 -7 -23 -27 -9 -28 -22 -1 -15 11 3 18 1 14 -4
-3 -5 0 -9 5 -9 18 0 12 -14 -11 -29 -21 -13 -22 -13 -9 2 12 15 10 22 -3 15
-2 -2 -14 10 -26 25 -27 34 -38 130 -15 120 11 -4 12 -10 4 -24z m201 -74 c11
-13 10 -14 -4 -9 -9 3 -16 10 -16 15 0 13 6 11 20 -6z m2078 5 c-15 -9 -14
-15 9 -62 47 -96 64 -158 44 -158 -5 0 -7 9 -4 21 4 14 0 22 -14 25 -22 6 -67
95 -67 132 0 27 3 27 -43 1 -38 -21 -38 -21 -13 0 28 23 80 51 95 50 6 0 3 -4
-7 -9z m-1928 -31 c0 -6 -4 -7 -10 -4 -5 3 -10 11 -10 16 0 6 5 7 10 4 6 -3
10 -11 10 -16z m-863 -41 c-3 -8 -6 -5 -6 6 -1 11 2 17 5 13 3 -3 4 -12 1 -19z
m104 -83 c-5 -50 -9 -64 -10 -39 -1 46 11 145 16 129 1 -6 -1 -46 -6 -90z
m989 69 c0 -2 -9 0 -20 6 -11 6 -20 13 -20 16 0 2 9 0 20 -6 11 -6 20 -13 20
-16z m1896 -49 c-10 -8 -24 -11 -30 -8 -6 4 0 10 14 14 36 10 37 10 16 -6z
m-2868 -165 c0 -9 -3 -7 -8 5 -5 11 -8 29 -8 40 0 16 2 15 8 -5 4 -14 8 -32 8
-40z m-658 46 c0 -2 -24 -21 -52 -42 -42 -30 -50 -33 -37 -14 16 25 89 70 89
56z m2359 -3 c-1 -5 0 -10 1 -13 1 -3 3 -14 5 -25 3 -17 2 -18 -8 -5 -7 9 -20
14 -29 12 -10 -2 -18 2 -18 9 0 7 3 10 6 6 4 -3 13 0 21 8 16 17 24 19 22 8z
m-744 -25 c7 -8 3 -9 -15 -4 -14 3 -31 6 -37 6 -7 0 -13 4 -13 9 0 12 52 3 65
-11z m540 2 c3 -5 1 -10 -4 -10 -6 0 -11 5 -11 10 0 6 2 10 4 10 3 0 8 -4 11
-10z m-636 -4 c-10 -9 -69 -36 -69 -32 0 7 52 35 64 36 5 0 7 -2 5 -4z m536
-65 c3 -5 2 -12 -3 -15 -5 -3 -9 1 -9 9 0 17 3 19 12 6z m1331 -38 c-9 -74
-24 -302 -32 -468 -5 -114 -9 -143 -16 -120 -12 37 -2 421 13 501 22 124 46
183 35 87z m-3462 25 c-5 -8 -2 -9 9 -5 34 13 16 -4 -19 -19 -45 -19 -53 -13
-18 15 30 24 39 27 28 9z m2526 -28 c0 -5 12 -12 28 -15 50 -10 241 -109 241
-126 1 -16 45 -59 61 -59 6 0 10 -5 10 -10 0 -6 14 -29 30 -52 17 -22 30 -47
30 -55 0 -7 7 -16 15 -19 8 -3 17 -15 21 -26 3 -11 26 -32 50 -48 l45 -28 -21
-20 -21 -19 21 -6 c11 -3 20 -9 20 -14 0 -12 -65 -43 -90 -43 -10 0 -22 -4
-25 -10 -8 -13 69 -67 107 -76 l32 -6 -29 -16 c-17 -8 -55 -18 -85 -21 -59 -6
-63 -11 -48 -65 10 -37 -8 -155 -34 -224 -28 -76 -131 -225 -178 -260 -39 -28
-39 -29 -17 -39 25 -12 18 -16 -48 -29 -38 -8 -38 -8 -10 -11 61 -7 79 -13 67
-25 -12 -12 -127 -61 -242 -104 -114 -42 -272 -31 -420 28 -60 24 -185 92
-211 114 -14 12 -15 10 -11 -17 l5 -31 -84 7 c-140 11 -238 -23 -329 -115 -76
-76 -129 -182 -155 -311 -2 -15 -11 -29 -18 -32 -19 -7 -65 55 -88 116 -10 29
-23 51 -28 50 -10 -3 -24 40 -68 205 -21 81 -31 106 -47 112 -12 5 -16 9 -10
9 15 1 25 39 12 47 -5 3 -7 12 -4 20 9 23 -10 25 -21 1 -30 -64 -32 -76 -16
-79 9 -2 2 -8 -17 -15 l-32 -12 7 37 c33 175 139 329 285 415 60 35 70 38 130
35 95 -5 149 -35 254 -141 48 -49 83 -80 77 -68 -9 16 -9 26 0 42 6 12 9 30 6
40 -3 10 -2 19 3 19 4 0 15 26 24 58 30 98 67 203 92 256 l23 51 -6 -72 c-6
-81 20 -228 39 -217 7 4 8 2 4 -5 -9 -14 2 -53 13 -46 5 2 13 -7 20 -21 8 -17
8 -23 0 -19 -26 17 28 -64 70 -103 97 -91 193 -132 310 -132 160 0 307 74 386
194 43 65 82 180 94 282 l10 79 -4 -85 c-2 -47 -7 -96 -10 -110 -5 -24 -5 -24
4 -2 39 87 33 259 -13 356 -34 74 -125 159 -221 207 -134 66 -280 73 -404 18
-24 -11 -46 -17 -49 -15 -6 7 -59 -21 -68 -35 -3 -6 6 -3 22 6 l29 17 -25 -20
c-14 -11 -27 -19 -29 -16 -2 2 -10 -1 -18 -7 -40 -34 7 49 68 118 29 32 67 81
85 110 19 28 38 54 44 58 13 8 13 -11 -2 -38 -10 -19 -7 -18 21 6 18 15 37 27
43 27 6 0 0 -9 -13 -21 l-24 -20 24 12 c14 6 75 29 135 50 110 37 176 48 176
29z m-2430 -21 c-7 -11 -14 -18 -17 -15 -3 3 0 12 7 21 18 21 23 19 10 -6z
m-19 -56 c-28 -31 -51 -65 -51 -75 0 -10 -4 -18 -10 -18 -5 0 -10 6 -9 13 1
22 54 112 66 112 7 0 18 6 25 13 6 6 16 12 21 12 5 0 -14 -26 -42 -57z m22
-80 c-68 -88 -77 -109 -24 -53 56 58 47 42 -40 -74 -30 -41 -45 -54 -47 -43
-5 26 42 120 83 166 47 51 67 54 28 4z m-294 -40 c-5 -21 -12 -51 -15 -68 -4
-16 -15 -39 -25 -50 -10 -11 -25 -36 -33 -55 -22 -53 -56 -243 -63 -352 -8
-135 -26 -133 -39 4 -11 127 20 266 93 412 32 63 82 146 88 146 2 0 -1 -17 -6
-37z m931 -73 c18 -12 2 -12 -25 0 -13 6 -15 9 -5 9 8 0 22 -4 30 -9z m-664
-108 c-41 -81 -95 -132 -141 -132 l-30 0 38 31 c21 17 65 67 99 112 34 44 63
76 65 70 2 -6 -12 -43 -31 -81z m536 36 c3 -7 -11 -37 -29 -66 -32 -49 -58
-134 -70 -224 -5 -36 -16 -48 -27 -30 -6 11 37 170 58 210 9 17 14 32 11 32
-12 0 -46 -87 -70 -181 -35 -137 -31 -201 29 -394 4 -11 -4 3 -17 30 -82 172
-54 466 55 590 41 47 54 53 60 33z m1831 -49 c14 -6 30 -22 37 -34 11 -20 9
-26 -9 -46 -11 -13 -21 -26 -21 -29 0 -11 -49 -30 -75 -30 -36 0 -65 34 -65
73 0 61 69 95 133 66z m1486 -34 c64 -55 103 -239 76 -366 -20 -98 -59 -177
-91 -185 -28 -7 -66 14 -89 50 -27 40 -58 212 -51 283 9 103 77 243 117 243 4
0 21 -11 38 -25z m-172 8 c-3 -5 -10 -60 -17 -123 -7 -63 -14 -118 -16 -122
-6 -10 -56 12 -72 31 -13 15 -6 140 8 151 3 3 10 14 14 24 5 14 10 16 17 9 15
-15 46 -4 52 18 3 10 8 19 12 19 3 0 4 -3 2 -7z m-3757 -139 c0 -16 -9 -18
-30 -4 -13 9 -13 11 0 19 17 12 30 5 30 -15z m686 -10 c8 -33 -1 -54 -25 -54
-29 0 -43 54 -20 77 16 16 38 5 45 -23z m1356 9 c36 -32 17 -83 -32 -83 -33 0
-50 17 -50 52 0 44 48 62 82 31z m608 -138 c14 -17 5 -101 -12 -122 -30 -37
-51 2 -37 69 16 74 24 83 49 53z m-2300 -107 c0 -9 3 -18 8 -20 4 -1 18 -25
32 -51 24 -47 70 -100 70 -81 0 5 14 -16 31 -46 48 -85 73 -120 86 -120 6 0
35 -12 64 -27 55 -29 140 -37 200 -21 20 6 28 4 33 -8 4 -10 -1 -18 -13 -21
-12 -3 -17 -11 -14 -19 4 -10 0 -12 -11 -8 -12 5 -15 2 -10 -10 5 -12 0 -19
-15 -23 -11 -3 -21 -10 -21 -15 0 -5 -6 -6 -12 -2 -8 5 -7 0 2 -11 9 -11 10
-16 3 -11 -8 4 -13 2 -14 -6 0 -10 -2 -10 -6 0 -2 6 -9 12 -14 12 -4 0 -5 -7
-2 -17 4 -11 3 -14 -6 -9 -6 4 -18 3 -26 -4 -7 -6 -19 -10 -27 -9 -7 2 -22 -2
-33 -8 -27 -14 -214 -9 -290 8 l-60 14 103 3 c56 1 102 6 102 11 0 9 -92 36
-152 45 -93 14 -114 18 -127 26 -8 4 39 9 103 12 64 2 121 9 127 15 7 7 -2 18
-28 35 -70 46 -141 118 -180 181 -41 64 -77 146 -69 154 2 3 17 -4 33 -15 15
-11 57 -36 93 -56 36 -20 76 -44 90 -53 l25 -17 -26 30 c-25 27 -69 140 -69
173 0 14 1 14 10 1 5 -8 10 -22 10 -32z m186 -95 c36 -63 100 -130 148 -155
49 -25 133 -34 178 -19 22 7 52 32 84 71 26 32 50 57 52 55 6 -6 -30 -69 -64
-112 -63 -77 -184 -109 -262 -69 -72 37 -149 149 -168 244 -9 45 1 40 32 -15z
m2114 -51 c0 -16 -56 -86 -95 -121 -80 -70 -231 -120 -319 -106 -65 11 -140
43 -189 80 -49 38 -63 61 -47 80 8 9 7 15 -2 18 -8 3 -6 6 5 6 10 1 42 -12 71
-29 30 -16 73 -36 97 -44 109 -38 283 -2 409 85 57 39 70 45 70 31z m-730 -52
c6 -11 8 -20 6 -20 -3 0 -10 9 -16 20 -6 11 -8 20 -6 20 3 0 10 -9 16 -20z
m-1386 -36 c3 -8 2 -12 -4 -9 -6 3 -10 10 -10 16 0 14 7 11 14 -7z m3311 -123
c-17 -50 -45 -104 -51 -99 -5 5 54 138 61 138 2 0 -2 -17 -10 -39z m-632 -45
c9 -7 17 -18 17 -25 0 -16 -50 -3 -75 20 -19 19 -19 19 10 19 17 0 38 -7 48
-14z m57 -65 c18 -35 11 -43 -20 -21 -30 21 -32 40 -5 40 8 0 19 -9 25 -19z
m-2473 -70 c0 -11 -4 -18 -8 -15 -4 2 -9 -3 -12 -10 -7 -19 -83 -52 -138 -61
-64 -10 -39 10 62 51 46 18 85 38 87 44 6 16 11 12 9 -9z m156 -15 c-5 -26 36
-117 71 -155 21 -23 21 -24 0 -13 -30 16 -104 99 -105 119 -2 28 2 47 13 61
16 19 26 14 21 -12z m915 1 c14 -16 -19 -75 -46 -83 -9 -3 -42 -17 -72 -30
-31 -13 -98 -35 -149 -48 -51 -14 -122 -39 -157 -55 -35 -16 -64 -25 -64 -20
0 6 16 31 35 56 19 25 35 49 35 54 0 4 9 11 21 14 11 4 18 9 15 12 -6 6 55 57
87 75 61 32 274 50 295 25z m99 -62 c67 -31 94 -60 42 -45 -16 5 -30 9 -32 9
-29 -1 -107 16 -107 23 0 16 21 49 28 45 4 -2 35 -16 69 -32z m1730 20 c68 0
73 -1 67 -20 -15 -48 -58 -123 -92 -157 -29 -30 -43 -38 -73 -38 -57 0 -159
36 -225 78 -65 43 -105 82 -84 82 7 0 28 11 46 25 27 21 38 24 53 15 33 -17
113 -12 146 10 22 14 38 17 60 12 17 -3 63 -7 102 -7z m-3585 -61 c22 -12 50
-15 99 -12 l68 4 -22 -24 c-44 -47 -85 -65 -134 -58 -51 7 -108 38 -124 67 -8
16 -6 21 13 29 35 13 66 12 100 -6z m-55 -103 c12 -6 37 -11 55 -11 l33 0 -30
-20 c-16 -11 -40 -20 -53 -20 -33 0 -82 52 -82 86 l0 28 28 -26 c15 -14 37
-31 49 -37z m2441 -201 c34 -22 62 -44 62 -48 0 -5 21 -12 48 -16 51 -7 152
-49 152 -64 0 -6 -17 -6 -42 1 -24 5 -106 11 -183 11 -123 1 -146 -2 -186 -20
-93 -43 -175 -144 -214 -264 -17 -50 -19 -53 -31 -35 -41 62 -41 62 -48 11 -7
-41 -9 -46 -23 -34 -9 7 -35 42 -59 78 -37 54 -44 61 -44 39 0 -66 -31 -132
-90 -191 -32 -32 -64 -58 -70 -58 -8 0 -9 17 -5 58 8 59 6 60 -32 10 -11 -15
-46 -56 -78 -90 -31 -35 -78 -90 -103 -123 -25 -33 -64 -80 -85 -105 -22 -25
-55 -76 -74 -115 -69 -138 -167 -232 -149 -144 3 16 4 29 2 29 -2 0 -48 -55
-102 -122 -101 -128 -113 -140 -126 -132 -4 2 -12 -5 -18 -16 -6 -11 -15 -18
-21 -15 -15 10 -59 102 -59 124 0 11 -5 21 -10 23 -6 2 -17 41 -25 86 -8 46
-17 88 -21 93 -9 15 -24 10 -25 -8 -1 -47 -38 101 -40 162 -2 64 -3 66 -8 25
-4 -25 -7 -82 -6 -127 0 -82 -11 -95 -24 -31 -4 18 -12 32 -18 31 -13 -2 -14
4 -20 116 -5 98 14 211 43 248 12 17 13 16 14 -7 1 -22 2 -23 11 -7 5 9 15 17
20 17 6 0 7 -6 2 -12 -4 -7 -8 -17 -9 -23 -1 -5 -11 -46 -23 -89 -14 -54 -18
-83 -11 -90 7 -7 10 -5 10 4 0 8 6 27 14 41 7 15 21 49 30 77 10 28 29 63 44
78 15 15 21 24 15 20 -9 -5 -11 -2 -6 10 5 14 8 13 18 -6 8 -16 14 -19 20 -11
9 16 29 -11 39 -54 l8 -30 24 49 c13 28 24 57 24 67 0 9 17 29 38 45 20 15 51
42 68 61 35 36 60 41 104 18 48 -25 81 -20 178 29 51 26 96 44 101 41 6 -3 13
0 17 6 5 8 3 9 -6 4 -9 -5 -11 -4 -6 4 4 6 14 10 22 9 26 -5 123 112 164 198
22 45 49 92 60 105 11 13 29 35 40 49 l20 25 33 -35 c47 -50 134 -92 134 -64
0 8 -4 14 -9 14 -4 0 -8 14 -8 31 0 24 4 30 15 25 8 -3 15 0 15 7 0 8 3 8 8 2
6 -10 216 -85 235 -85 4 0 -2 18 -13 41 -12 23 -19 43 -16 46 3 3 38 -3 78
-13 40 -10 76 -17 81 -16 7 2 82 -13 122 -24 14 -4 7 7 -22 38 -69 71 -56 78
35 18z m-1884 -277 c-9 -21 -26 -63 -37 -93 -11 -30 -29 -68 -39 -85 l-20 -30
7 40 c4 22 22 65 40 95 19 31 39 68 44 83 6 15 13 27 16 27 3 0 -2 -17 -11
-37z m1956 23 c8 -1 17 -11 19 -21 2 -15 -2 -17 -28 -12 -17 4 -42 2 -56 -3
-21 -8 -24 -7 -22 8 5 33 18 44 46 38 14 -4 33 -8 41 -10z m-2095 -19 c-16
-12 -51 -43 -77 -69 -27 -27 -48 -45 -48 -41 0 4 -7 -2 -16 -13 -15 -17 -15
-17 0 9 34 58 49 77 60 77 6 0 31 14 56 30 52 35 69 39 25 7z m1995 -2 c0 -2
-13 -3 -29 -3 -23 1 -26 4 -17 13 10 11 46 4 46 -10z m293 -38 c27 -1 51 -8
56 -15 5 -8 12 -14 17 -15 5 -1 8 -7 6 -14 -2 -7 2 -13 9 -13 8 0 9 11 5 33
-6 32 -6 32 10 9 9 -14 14 -35 11 -56 -3 -24 0 -33 10 -33 8 0 12 6 9 14 -8
21 12 15 24 -7 6 -12 8 -30 5 -40 -4 -12 -2 -20 4 -20 23 0 10 -18 -16 -23
-32 -6 -75 11 -66 27 3 6 3 8 -2 4 -10 -10 -102 40 -109 59 -3 8 -11 11 -17 8
-5 -4 -16 1 -23 11 -13 17 -14 16 -26 -6 -19 -35 -36 -50 -58 -50 -25 0 -92
28 -115 48 -16 14 -22 13 -70 -11 -71 -37 -91 -35 -112 8 -26 56 -20 60 96 60
57 0 117 4 133 9 21 6 27 6 22 -3 -10 -16 14 -13 54 8 20 11 47 16 65 14 17
-3 52 -5 78 -6z m-2493 -47 c-6 -12 -14 -20 -17 -17 -2 3 1 14 8 26 7 11 15
18 17 16 2 -2 -2 -13 -8 -25z m2735 20 c4 -6 14 -8 23 -6 17 6 54 -38 67 -79
7 -20 7 -20 -12 0 -26 30 -45 43 -88 61 -36 15 -38 15 -26 0 12 -14 12 -16 0
-11 -8 3 -19 13 -26 23 -9 16 -7 18 22 20 19 2 36 -2 40 -8z m-830 -110 c-7
-30 -14 -46 -14 -35 -1 22 19 99 24 93 2 -1 -3 -28 -10 -58z m-1579 -19 c-9
-16 -12 -31 -9 -35 4 -3 1 -6 -6 -6 -7 0 -10 -4 -7 -8 3 -5 -8 -47 -24 -93
-22 -65 -29 -77 -29 -52 -1 56 19 130 49 177 33 51 49 62 26 17z m1896 -9 c12
-27 12 -27 16 -4 3 17 8 22 20 17 9 -4 54 -10 99 -14 65 -5 86 -11 97 -26 9
-11 16 -26 16 -33 0 -13 -40 -33 -52 -25 -5 2 -8 0 -8 -5 0 -5 -6 -9 -12 -9
-7 -1 -34 -5 -59 -11 -59 -12 -95 5 -104 49 -5 20 -10 27 -15 20 -11 -18 -40
32 -33 58 6 25 20 18 35 -17z m-2263 -94 c-40 -76 -48 -104 -26 -92 6 4 2 -3
-11 -15 -36 -36 -44 -20 -17 37 22 48 81 142 89 142 2 0 -14 -33 -35 -72z
m3011 26 c0 -8 -7 -14 -15 -14 -8 0 -15 5 -15 11 0 5 5 7 12 3 8 -5 9 -2 5 10
-4 10 -3 15 3 11 6 -3 10 -13 10 -21z m5 -44 c3 -5 2 -10 -4 -10 -5 0 -13 5
-16 10 -3 6 -2 10 4 10 5 0 13 -4 16 -10z m-393 -30 c22 -20 39 -28 53 -24 19
5 19 4 1 -7 -15 -9 -16 -13 -5 -20 21 -13 39 -11 33 5 -9 23 18 31 34 10 13
-16 14 -17 9 -1 -4 9 -3 17 1 17 11 0 36 -88 37 -130 0 -19 4 -41 8 -48 6 -9
2 -10 -18 -2 -15 6 -31 8 -36 4 -5 -3 -9 0 -9 5 0 6 -4 11 -9 11 -10 0 -7 -32
5 -51 4 -7 1 -10 -7 -7 -8 3 -14 10 -14 16 0 5 -3 13 -7 17 -4 4 -5 12 -4 18
2 7 1 9 -1 4 -3 -4 -10 -4 -15 -1 -7 4 -8 2 -4 -4 11 -17 -9 -15 -24 3 -7 8
-10 15 -6 15 4 0 0 10 -9 23 -29 45 -67 177 -51 177 3 0 20 -13 38 -30z
m-2757 -131 c-20 -23 -51 -71 -67 -108 -17 -36 -36 -79 -44 -96 l-15 -30 7 40
c11 68 43 128 97 183 61 62 74 69 22 11z m114 -13 c-29 -49 -34 -46 -9 5 12
23 24 39 26 36 3 -2 -5 -21 -17 -41z m3040 0 c-1 -17 -2 -17 -6 -3 -2 9 -9 17
-14 17 -5 0 -9 7 -9 16 0 14 3 14 15 4 8 -7 14 -22 14 -34z m-3140 -26 c-12
-22 -25 -43 -31 -46 -10 -6 17 52 34 74 19 23 18 12 -3 -28z m3211 25 c6 -8 9
-18 6 -23 -3 -6 2 -16 11 -23 15 -12 16 -12 10 5 -14 37 23 -5 43 -49 34 -75
44 -145 21 -145 -9 0 -66 111 -63 122 1 4 -9 27 -21 51 -31 58 -38 77 -28 77
5 0 14 -7 21 -15z m-2997 -75 c-3 -12 -8 -19 -11 -16 -5 6 5 36 12 36 2 0 2
-9 -1 -20z m-131 -83 c-21 -40 -50 -105 -66 -144 -16 -40 -31 -72 -32 -70 -8
8 21 104 35 115 9 7 10 11 4 7 -7 -3 -13 -3 -13 1 0 16 95 164 105 164 2 0
-13 -33 -33 -73z m-115 -129 c-3 -7 -5 -2 -5 12 0 14 2 19 5 13 2 -7 2 -19 0
-25z m48 -155 c-26 -59 -48 -109 -49 -111 -2 -1 -3 19 -3 45 0 26 3 39 6 29 5
-12 12 -2 26 36 19 53 56 120 64 113 2 -2 -18 -53 -44 -112z m654 -1061 c11
-21 41 -62 68 -92 l48 -53 -44 7 c-90 14 -131 58 -131 141 0 50 33 49 59 -3z
m1800 -58 c-7 -8 -26 -22 -43 -31 -30 -16 -31 -16 -16 3 22 27 43 43 59 44 11
0 11 -3 0 -16z m-1466 -191 c-20 -38 -56 -88 -80 -113 -24 -25 -55 -67 -68
-94 -14 -28 -25 -41 -25 -30 1 30 30 77 85 136 28 30 63 79 80 111 16 31 33
57 37 57 4 0 -9 -30 -29 -67z m957 -179 c0 -21 -44 -72 -65 -76 -28 -6 -30 -1
-15 36 7 20 6 24 -5 20 -7 -3 -16 -17 -20 -31 -6 -24 -7 -24 -19 -7 -12 15
-16 16 -30 5 -13 -11 -16 -11 -16 2 0 31 49 51 133 55 20 1 37 -1 37 -4z
m-1070 -53 c-5 -11 -15 -23 -20 -26 -14 -9 -12 19 2 33 19 19 30 14 18 -7z"/>
<path d="M4780 5573 c0 -15 29 -49 30 -35 0 7 -7 20 -15 28 -8 9 -15 11 -15 7z"/>
<path d="M3864 5755 c3 -24 12 -27 27 -8 9 11 10 14 2 9 -7 -4 -13 -2 -13 3 0
6 -4 11 -9 11 -5 0 -8 -7 -7 -15z"/>
<path d="M4223 4278 c-33 -43 -19 -91 25 -86 21 2 28 9 30 30 6 51 -31 87 -55
56z"/>
<path d="M6594 4735 c4 -14 1 -44 -5 -65 -14 -47 -7 -60 20 -36 15 13 20 14
24 4 3 -7 6 10 7 37 1 38 4 45 10 30 5 -11 6 -36 4 -55 -5 -31 -4 -33 9 -17 8
9 22 17 32 17 11 0 15 5 11 16 -3 9 -6 29 -6 45 0 16 -4 29 -10 29 -5 0 -10
-9 -10 -20 0 -11 -4 -20 -9 -20 -5 0 -11 9 -14 20 -7 26 -27 26 -27 1 0 -11
-4 -23 -10 -26 -6 -4 -10 8 -10 29 0 20 -5 36 -11 36 -7 0 -9 -10 -5 -25z m17
-82 c-8 -15 -10 -15 -11 -2 0 17 10 32 18 25 2 -3 -1 -13 -7 -23z"/>
<path d="M2980 4461 c41 -33 190 -109 190 -97 0 2 -28 18 -62 35 -35 17 -83
43 -108 57 -34 19 -39 21 -20 5z"/>
<path d="M3526 4122 c-3 -5 1 -9 9 -9 8 0 12 4 9 9 -3 4 -7 8 -9 8 -2 0 -6 -4
-9 -8z"/>
<path d="M3286 4068 c3 -4 11 -5 19 -1 21 7 19 12 -4 10 -11 0 -18 -5 -15 -9z"/>
<path d="M5760 3236 c0 -2 8 -10 18 -17 15 -13 16 -12 3 4 -13 16 -21 21 -21
13z"/>
<path d="M5705 2821 c-3 -5 -2 -12 3 -15 5 -3 9 1 9 9 0 17 -3 19 -12 6z"/>
<path d="M6511 3919 c-6 -18 -11 -37 -10 -43 0 -6 7 7 15 28 8 22 12 41 10 43
-2 2 -9 -10 -15 -28z"/>
<path d="M6429 3773 l-24 -28 28 24 c15 14 27 26 27 28 0 8 -8 1 -31 -24z"/>
<path d="M2625 2879 c-11 -17 1 -21 15 -4 8 9 8 15 2 15 -6 0 -14 -5 -17 -11z"/>
<path d="M5140 1053 c0 -24 47 -78 94 -108 47 -30 63 -35 113 -34 l58 1 -45
15 c-24 9 -51 22 -58 30 -7 7 -17 13 -22 13 -5 0 -20 11 -34 25 -14 14 -28 25
-31 25 -4 0 -18 9 -32 20 -27 21 -43 26 -43 13z"/>
</g>
</svg>
