<?xml version="1.0" encoding="UTF-8" standalone="no"?>
<!-- Created with Inkscape (http://www.inkscape.org/) -->

<svg
   width="208"
   height="60"
   viewBox="0 0 200 60"
   version="1.1"
   id="svg5"
   inkscape:version="1.1.2 (0a00cf5339, 2022-02-04)"
   sodipodi:docname="new-logo.svg"
   xmlns:inkscape="http://www.inkscape.org/namespaces/inkscape"
   xmlns:sodipodi="http://sodipodi.sourceforge.net/DTD/sodipodi-0.dtd"
   xmlns:xlink="http://www.w3.org/1999/xlink"
   xmlns="http://www.w3.org/2000/svg"
   xmlns:svg="http://www.w3.org/2000/svg">
  <sodipodi:namedview
     id="namedview7"
     pagecolor="#ffffff"
     bordercolor="#666666"
     borderopacity="1.0"
     inkscape:pageshadow="2"
     inkscape:pageopacity="0.0"
     inkscape:pagecheckerboard="0"
     inkscape:document-units="px"
     showgrid="false"
     inkscape:object-paths="true"
     inkscape:snap-bbox="false"
     inkscape:zoom="3.9056601"
     inkscape:cx="72.714981"
     inkscape:cy="19.586958"
     inkscape:window-width="1920"
     inkscape:window-height="1020"
     inkscape:window-x="0"
     inkscape:window-y="0"
     inkscape:window-maximized="1"
     inkscape:current-layer="layer1" />
  <defs
     id="defs2">
    <linearGradient
       inkscape:collect="always"
       id="linearGradient198772">
      <stop
         style="stop-color:#ffe100;stop-opacity:1;"
         offset="0"
         id="stop198768" />
      <stop
         style="stop-color:#ffbf00;stop-opacity:1"
         offset="1"
         id="stop198770" />
      <stop
         style="stop-color:#f88700;stop-opacity:1"
         offset="0"
         id="stop198770" />
    </linearGradient>
    <linearGradient
       inkscape:collect="always"
       id="linearGradient197233">
      <stop
         style="stop-color:#248aed;stop-opacity:1"
         offset="0"
         id="stop197229" />
      <stop
         style="stop-color:#13bafe;stop-opacity:1"
         offset="0"
         id="stop197229" />
      <stop
         style="stop-color:#66cfff;stop-opacity:1"
         offset="1"
         id="stop197231" />
    </linearGradient>
    <linearGradient
       inkscape:collect="always"
       id="linearGradient196523">
       <stop
         style="stop-color:#248aed;stop-opacity:1"
         offset="0"
         id="stop197229" />
      <stop
         style="stop-color:#13bafe;stop-opacity:1"
         offset="0"
         id="stop197229" />
      <stop
         style="stop-color:#66cfff;stop-opacity:1"
         offset="1"
         id="stop197231" />
    </linearGradient>
    <linearGradient
       inkscape:collect="always"
       xlink:href="#linearGradient41690"
       id="linearGradient107447"
       x1="143.07391"
       y1="205.47034"
       x2="377.24203"
       y2="205.47034"
       gradientUnits="userSpaceOnUse"
       gradientTransform="translate(2.284345,4.6226981)" />
    <linearGradient
       inkscape:collect="always"
       xlink:href="#linearGradient196523"
       id="linearGradient138188"
       x1="175.43703"
       y1="208.93452"
       x2="177.47789"
       y2="184.47858"
       gradientUnits="userSpaceOnUse"
       gradientTransform="translate(-124.48,-165.64156)" />
    <linearGradient
       inkscape:collect="always"
       xlink:href="#linearGradient138186"
       id="linearGradient179803"
       gradientUnits="userSpaceOnUse"
       gradientTransform="translate(2.6577086,-2.9710042)"
       x1="177.52103"
       y1="206.29715"
       x2="182.9404"
       y2="158.04538" />
    <linearGradient
       inkscape:collect="always"
       xlink:href="#linearGradient197233"
       id="linearGradient179807"
       gradientUnits="userSpaceOnUse"
       gradientTransform="translate(-124.59181,-133.43202)"
       x1="246.472"
       y1="205.48593"
       x2="247.07932"
       y2="168.86292" />
    <linearGradient
       inkscape:collect="always"
       xlink:href="#linearGradient198772"
       id="linearGradient198774"
       x1="146.84596"
       y1="35.311707"
       x2="147.55228"
       y2="-0.62009364"
       gradientUnits="userSpaceOnUse" />
  </defs>
  <g
     inkscape:label="Layer 1"
     inkscape:groupmode="layer"
     id="layer1"
     transform="translate(-158.54704,-174.63659)">
    <path
       id="text297"
       style="font-style:normal;font-weight:normal;font-size:24px;line-height:1.25;font-family:sans-serif;fill:url(#linearGradient138188);fill-opacity:1;stroke:#000000;stroke-width:1;stroke-miterlimit:4;stroke-dasharray:none;stroke-opacity:1"
       d="m 40.806641,16.748047 c -1.248,0 -2.391641,0.207047 -3.431641,0.623047 -1.024,0.416 -1.904625,1.009343 -2.640625,1.777344 -0.736,0.751999 -1.303125,1.662374 -1.703125,2.734374 -0.384,1.056 -0.576172,2.248172 -0.576172,3.576172 0,1.744 0.34325,3.271985 1.03125,4.583985 0.704,1.312 1.679735,2.336265 2.927734,3.072265 1.264001,0.72 2.728579,1.080078 4.392579,1.080078 1.264,0 2.40764,-0.207046 3.43164,-0.623046 1.024,-0.416 1.904625,-1.009344 2.640625,-1.777344 0.736,-0.768 1.303125,-1.687766 1.703125,-2.759766 0.4,-1.072 0.59961,-2.271609 0.59961,-3.599609 0,-1.744 -0.350688,-3.264547 -1.054688,-4.560547 -0.688,-1.312 -1.656297,-2.326875 -2.904297,-3.046875 -1.248,-0.72 -2.720015,-1.080078 -4.416015,-1.080078 z m 17.783203,0 c -1.008,0 -1.935203,0.126812 -2.783203,0.382812 -0.832,0.256 -1.552157,0.625469 -2.160157,1.105469 -0.608,0.48 -1.080015,1.047125 -1.416015,1.703125 -0.336,0.656 -0.503907,1.383594 -0.503907,2.183594 0,1.264 0.367516,2.288265 1.103516,3.072265 0.752,0.768 1.895641,1.312813 3.431641,1.632813 l 2.71289,0.576172 c 0.88,0.192 1.495657,0.423312 1.847657,0.695312 0.352,0.272 0.527343,0.639516 0.527343,1.103516 0,0.544 -0.24814,1.001141 -0.74414,1.369141 -0.496,0.352 -1.328094,0.527343 -2.496094,0.527343 -0.768,0 -1.542172,-0.08767 -2.326172,-0.263671 -0.768,-0.176001 -1.480719,-0.448407 -2.136719,-0.816407 -0.384,-0.192 -0.73664,-0.247968 -1.05664,-0.167969 -0.304,0.064 -0.559578,0.224469 -0.767578,0.480469 -0.192,0.24 -0.311375,0.519844 -0.359375,0.839844 -0.032,0.32 0.02397,0.638984 0.167968,0.958984 0.144,0.304 0.392141,0.552141 0.744141,0.744141 0.496,0.288 1.055687,0.528703 1.679688,0.720703 0.64,0.192 1.304187,0.335641 1.992187,0.431641 0.704,0.112 1.3905,0.167968 2.0625,0.167968 1.056,0 2.009422,-0.119374 2.857422,-0.359374 0.848,-0.256 1.575594,-0.616079 2.183594,-1.080079 0.608,-0.464 1.072578,-1.01625 1.392578,-1.65625 0.32,-0.656 0.478515,-1.383593 0.478515,-2.183593 0,-1.216 -0.38239,-2.191735 -1.15039,-2.927735 -0.768,-0.752 -1.935906,-1.296812 -3.503906,-1.632812 l -2.712891,-0.576172 c -0.832,-0.176 -1.415953,-0.407313 -1.751953,-0.695313 -0.336,-0.288 -0.503906,-0.664906 -0.503906,-1.128906 0,-0.416 0.119374,-0.783515 0.359374,-1.103516 0.256,-0.319999 0.616079,-0.56814 1.080079,-0.74414 0.48,-0.176 1.056515,-0.263672 1.728515,-0.263672 0.624,0 1.232219,0.06341 1.824219,0.191406 0.592,0.128 1.151688,0.32761 1.679687,0.59961 0.432001,0.208 0.799516,0.280797 1.103516,0.216796 0.304,-0.064 0.552141,-0.20764 0.744141,-0.43164 0.208,-0.224 0.327375,-0.479578 0.359375,-0.767578 0.048,-0.304 0.0089,-0.600672 -0.119141,-0.888672 -0.112,-0.304 -0.328437,-0.552141 -0.648437,-0.744141 -0.656,-0.416 -1.415297,-0.727547 -2.279297,-0.935547 -0.864,-0.224 -1.744625,-0.335937 -2.640625,-0.335937 z m -36.583985,0.214844 c -0.608,0 -1.072578,0.160468 -1.392578,0.480468 -0.32,0.32 -0.480469,0.792016 -0.480469,1.416016 v 13.175781 c 0,0.592 0.160469,1.056578 0.480469,1.392578 0.336,0.336 0.808016,0.503907 1.416016,0.503907 h 8.255859 c 0.512,0 0.903781,-0.136204 1.175782,-0.408203 0.287999,-0.272001 0.43164,-0.663782 0.43164,-1.175782 0,-0.496 -0.143641,-0.880344 -0.43164,-1.152344 -0.272001,-0.272 -0.663782,-0.408203 -1.175782,-0.408203 h -6.43164 V 18.859375 c 0,-0.624 -0.160469,-1.096016 -0.480469,-1.416016 -0.32,-0.32 -0.775188,-0.480468 -1.367188,-0.480468 z m 18.800782,2.953125 c 1.424,0 2.5285,0.48689 3.3125,1.46289 0.784,0.96 1.175781,2.320078 1.175781,4.080078 0,1.152 -0.184735,2.152 -0.552734,3 -0.352001,0.832 -0.863157,1.471922 -1.535157,1.919922 -0.656,0.432 -1.45639,0.648438 -2.40039,0.648438 -1.408,0 -2.505063,-0.486891 -3.289063,-1.462891 -0.784,-0.992 -1.175781,-2.361469 -1.175781,-4.105469 0,-1.168 0.177297,-2.168 0.529297,-3 0.352,-0.832 0.863156,-1.462531 1.535156,-1.894531 0.672,-0.432 1.472391,-0.648437 2.400391,-0.648437 z"
       transform="translate(138.91423,166.3905)" />
    <path
       id="text297-5"
       style="font-style:normal;font-weight:normal;font-size:32px;line-height:1.25;font-family:sans-serif;fill:url(#linearGradient179807);fill-opacity:1;stroke:#000000;stroke-width:1;stroke-miterlimit:4;stroke-dasharray:none;stroke-opacity:1"
       d="m 81.101562,43.228516 c -1.343999,0 -2.582223,0.170385 -3.71289,0.511718 -1.109333,0.341334 -2.06824,0.832657 -2.878906,1.472657 -0.810667,0.64 -1.440672,1.396817 -1.888672,2.271484 -0.448,0.874667 -0.671875,1.845443 -0.671875,2.912109 0,1.685334 0.491323,3.05037 1.472656,4.095704 1.002667,1.023999 2.528172,1.751067 4.576172,2.177734 l 3.615234,0.767578 c 1.173334,0.256 1.995511,0.565068 2.464844,0.927734 0.469333,0.362667 0.703125,0.85399 0.703125,1.472657 0,0.725333 -0.330854,1.333552 -0.992188,1.824218 -0.661333,0.469334 -1.770791,0.703125 -3.328124,0.703125 -1.024001,0 -2.058183,-0.116895 -3.103516,-0.351562 -1.024,-0.234667 -1.97299,-0.597224 -2.847656,-1.087891 -0.512,-0.256 -0.981537,-0.331276 -1.408204,-0.224609 -0.405333,0.08533 -0.746104,0.299292 -1.023437,0.640625 -0.256,0.32 -0.416469,0.692474 -0.480469,1.119141 -0.04267,0.426666 0.03261,0.85263 0.22461,1.279296 0.192,0.405334 0.522854,0.736188 0.992187,0.992188 0.661333,0.384 1.406281,0.704937 2.238281,0.960937 0.853334,0.256 1.738917,0.448172 2.65625,0.576172 0.938667,0.149334 1.855953,0.222657 2.751954,0.222657 1.407999,0 2.677927,-0.158516 3.808593,-0.478516 1.130667,-0.341333 2.101443,-0.82274 2.91211,-1.441406 0.810666,-0.618667 1.428802,-1.353698 1.855468,-2.207032 0.426667,-0.874666 0.640625,-1.845442 0.640625,-2.912109 0,-1.621333 -0.513109,-2.922964 -1.537109,-3.904297 -1.024,-1.002667 -2.581208,-1.727781 -4.671875,-2.175781 l -3.615234,-0.767578 c -1.109334,-0.234667 -1.887938,-0.543735 -2.335938,-0.927735 -0.448,-0.384 -0.671875,-0.885239 -0.671875,-1.503906 0,-0.554667 0.160469,-1.045989 0.480469,-1.472656 0.341333,-0.426667 0.820786,-0.757521 1.439453,-0.992188 0.64,-0.234666 1.408687,-0.351562 2.304687,-0.351562 0.832001,0 1.642308,0.08519 2.431641,0.255859 0.789333,0.170667 1.536235,0.438115 2.240235,0.800781 0.576,0.277334 1.065369,0.372443 1.470703,0.28711 0.405333,-0.08533 0.736187,-0.277505 0.992187,-0.576172 0.277333,-0.298667 0.437802,-0.639438 0.480469,-1.023438 0.064,-0.405333 0.01051,-0.799593 -0.160156,-1.183593 -0.149334,-0.405334 -0.436615,-0.736188 -0.863282,-0.992188 -0.874666,-0.554666 -1.889015,-0.970713 -3.041015,-1.248047 -1.152,-0.298666 -2.324865,-0.449218 -3.519532,-0.449218 z m 32.255858,0 c -1.81333,0 -3.44582,0.277364 -4.89648,0.832031 -1.42934,0.554667 -2.64577,1.34514 -3.64844,2.369141 -1.00267,1.002666 -1.7694,2.219104 -2.30273,3.648437 -0.512,1.408 -0.76758,2.996911 -0.76758,4.767578 0,2.368 0.45766,4.426448 1.375,6.175781 0.93866,1.728 2.272,3.07125 4,4.03125 1.728,0.96 3.80823,1.439454 6.24023,1.439454 1.13067,0 2.27183,-0.148599 3.42383,-0.447266 1.152,-0.298667 2.12278,-0.714714 2.91211,-1.248047 0.46933,-0.298667 0.79027,-0.661224 0.96094,-1.087891 0.17066,-0.426666 0.21228,-0.85263 0.12695,-1.279296 -0.064,-0.426667 -0.2443,-0.789224 -0.54297,-1.087891 -0.27733,-0.32 -0.63989,-0.512172 -1.08789,-0.576172 -0.42667,-0.08533 -0.91799,0.0098 -1.47266,0.287109 -0.66133,0.362667 -1.35474,0.630115 -2.08007,0.800782 -0.704,0.170666 -1.39742,0.255859 -2.08008,0.255859 -1.42934,0 -2.6339,-0.277365 -3.61524,-0.832031 -0.96,-0.576 -1.68706,-1.408094 -2.17773,-2.496094 -0.49067,-1.088 -0.73438,-2.399547 -0.73438,-3.935547 0,-1.557333 0.24371,-2.870833 0.73438,-3.9375 0.49067,-1.066667 1.21773,-1.876974 2.17773,-2.431641 0.98134,-0.576 2.1859,-0.863281 3.61524,-0.863281 0.72533,0 1.44053,0.08519 2.14453,0.25586 0.704,0.170666 1.37562,0.448031 2.01562,0.832031 0.53334,0.277333 1.01279,0.372443 1.43946,0.287109 0.42666,-0.08533 0.7793,-0.287422 1.05664,-0.607422 0.29866,-0.32 0.47897,-0.704343 0.54297,-1.152343 0.0853,-0.448 0.0318,-0.89575 -0.16016,-1.34375 -0.192,-0.448 -0.55456,-0.820474 -1.08789,-1.119141 -0.81067,-0.490667 -1.76957,-0.865094 -2.87891,-1.121094 -1.088,-0.277333 -2.16575,-0.416015 -3.23242,-0.416015 z m 99.02539,0 c -1.344,0 -2.58027,0.170385 -3.71093,0.511718 -1.10934,0.341334 -2.0702,0.832657 -2.88086,1.472657 -0.81067,0.64 -1.43872,1.396817 -1.88672,2.271484 -0.448,0.874667 -0.67383,1.845443 -0.67383,2.912109 0,1.685334 0.49132,3.05037 1.47265,4.095704 1.00267,1.023999 2.52818,1.751067 4.57618,2.177734 l 3.61523,0.767578 c 1.17333,0.256 1.99551,0.565068 2.46485,0.927734 0.46933,0.362667 0.70312,0.85399 0.70312,1.472657 0,0.725333 -0.3289,1.333552 -0.99023,1.824218 -0.66134,0.469334 -1.7708,0.703125 -3.32813,0.703125 -1.024,0 -2.06013,-0.116895 -3.10547,-0.351562 -1.024,-0.234667 -1.97299,-0.597224 -2.84765,-1.087891 -0.512,-0.256 -0.98154,-0.331276 -1.40821,-0.224609 -0.40533,0.08533 -0.7461,0.299292 -1.02343,0.640625 -0.25601,0.32 -0.41647,0.692474 -0.48047,1.119141 -0.0427,0.426666 0.0326,0.85263 0.22461,1.279296 0.192,0.405334 0.52285,0.736188 0.99218,0.992188 0.66134,0.384 1.40824,0.704937 2.24024,0.960937 0.85333,0.256 1.73891,0.448172 2.65625,0.576172 0.93866,0.149334 1.85595,0.222657 2.75195,0.222657 1.408,0 2.67597,-0.158516 3.80664,-0.478516 1.13067,-0.341333 2.10144,-0.82274 2.91211,-1.441406 0.81067,-0.618667 1.43076,-1.353698 1.85742,-2.207032 0.42667,-0.874666 0.63867,-1.845442 0.63867,-2.912109 0,-1.621333 -0.51115,-2.922964 -1.53515,-3.904297 -1.024,-1.002667 -2.58121,-1.727781 -4.67188,-2.175781 l -3.61718,-0.767578 c -1.10934,-0.234667 -1.88794,-0.543735 -2.33594,-0.927735 -0.448,-0.384 -0.67188,-0.885239 -0.67188,-1.503906 0,-0.554667 0.16047,-1.045989 0.48047,-1.472656 0.34134,-0.426667 0.82079,-0.757521 1.43946,-0.992188 0.64,-0.234666 1.40868,-0.351562 2.30468,-0.351562 0.832,0 1.64231,0.08519 2.43164,0.255859 0.78934,0.170667 1.53624,0.438115 2.24024,0.800781 0.576,0.277334 1.06732,0.372443 1.47265,0.28711 0.40534,-0.08533 0.73619,-0.277505 0.99219,-0.576172 0.27733,-0.298667 0.43585,-0.639438 0.47852,-1.023438 0.064,-0.405333 0.0105,-0.799593 -0.16016,-1.183593 -0.14933,-0.405334 -0.43661,-0.736188 -0.86328,-0.992188 -0.87467,-0.554666 -1.88706,-0.970713 -3.03906,-1.248047 -1.152,-0.298666 -2.32682,-0.449218 -3.52149,-0.449218 z m -189.392576,0.06445 c -0.725333,0 -1.301849,0.202088 -1.728515,0.607422 -0.405334,0.405333 -0.607422,0.971932 -0.607422,1.697265 V 64.125 c 0,0.725333 0.192172,1.289979 0.576172,1.695312 0.384,0.405334 0.938729,0.609376 1.664062,0.609376 0.746667,0 1.299443,-0.204042 1.66211,-0.609376 0.384,-0.405333 0.576171,-0.969979 0.576171,-1.695312 V 52.496094 l 5.248047,9.324218 c 0.234667,0.384 0.502115,0.683152 0.800782,0.896485 0.298666,0.213333 0.68301,0.320312 1.152343,0.320312 0.469334,0 0.841808,-0.09511 1.119141,-0.287109 0.298667,-0.213333 0.576031,-0.524354 0.832031,-0.929688 l 5.248047,-9.392578 V 64.125 c 0,0.725333 0.192172,1.289979 0.576172,1.695312 0.405333,0.405334 0.969979,0.609376 1.695313,0.609376 0.725333,0 1.280062,-0.204042 1.664062,-0.609376 0.384,-0.405333 0.576172,-0.969979 0.576172,-1.695312 V 45.597656 c 0,-0.725333 -0.202089,-1.291932 -0.607422,-1.697265 -0.384,-0.405334 -0.938729,-0.607422 -1.664062,-0.607422 -0.618667,0 -1.119907,0.128765 -1.503907,0.384765 -0.362666,0.234667 -0.703437,0.650714 -1.023437,1.248047 l -6.847656,12.509766 -6.84961,-12.509766 c -0.32,-0.597333 -0.670687,-1.01338 -1.054687,-1.248047 -0.362667,-0.256 -0.863907,-0.384765 -1.503907,-0.384765 z m 27.966797,0 c -0.810666,0 -1.428802,0.213958 -1.855469,0.640625 -0.426666,0.426666 -0.640624,1.054718 -0.640624,1.886718 v 10.88086 c 0,1.621333 0.204041,3.049776 0.609374,4.287109 0.426667,1.216 1.054719,2.230349 1.886719,3.041016 0.832,0.810667 1.856266,1.428802 3.072266,1.855469 1.237333,0.405333 2.655859,0.607422 4.255859,0.607422 2.133334,0 3.914417,-0.362558 5.34375,-1.087891 1.450667,-0.725333 2.538339,-1.813005 3.263672,-3.263672 0.746667,-1.472 1.121094,-3.284786 1.121094,-5.439453 v -10.88086 c 0,-0.832 -0.213958,-1.460052 -0.640625,-1.886718 -0.405333,-0.426667 -1.001682,-0.640625 -1.791016,-0.640625 -0.789333,0 -1.397552,0.213958 -1.824219,0.640625 -0.426666,0.426666 -0.640624,1.054718 -0.640624,1.886718 v 10.91211 c 0,1.834667 -0.416047,3.221489 -1.248047,4.160156 -0.810667,0.917333 -2.005318,1.376953 -3.583985,1.376953 -1.578666,0 -2.783234,-0.45962 -3.615234,-1.376953 -0.832,-0.938667 -1.248047,-2.325489 -1.248047,-4.160156 v -10.91211 c 0,-0.832 -0.213958,-1.460052 -0.640625,-1.886718 -0.426667,-0.426667 -1.034885,-0.640625 -1.824219,-0.640625 z m 44.449219,0 c -0.810667,0 -1.430755,0.223875 -1.857422,0.671875 -0.426667,0.448 -0.638672,1.078005 -0.638672,1.888672 v 18.015625 c 0,0.810666 0.212005,1.440671 0.638672,1.888671 0.426667,0.448 1.046755,0.671876 1.857422,0.671876 0.810667,0 1.416932,-0.223876 1.822266,-0.671876 0.426666,-0.448 0.640625,-1.078005 0.640625,-1.888671 V 45.853516 c 0,-0.810667 -0.213959,-1.440672 -0.640625,-1.888672 -0.426667,-0.448 -1.032933,-0.671875 -1.822266,-0.671875 z m 38.25781,0 c -0.61866,0 -1.16348,0.170385 -1.63281,0.511719 -0.46933,0.32 -0.87351,0.843026 -1.21484,1.568359 l -8.19336,17.951172 c -0.27734,0.576 -0.37245,1.099026 -0.28711,1.568359 0.10666,0.469333 0.34046,0.843761 0.70312,1.121094 0.384,0.277333 0.87533,0.416016 1.47266,0.416016 0.68267,0 1.19382,-0.160469 1.53516,-0.480469 0.36266,-0.341334 0.70539,-0.886146 1.02539,-1.632813 l 1.30273,-3.070312 h 10.55469 l 1.32617,3.070312 c 0.29867,0.725334 0.63944,1.260229 1.02344,1.601563 0.40533,0.341333 0.96998,0.511719 1.69531,0.511719 0.576,0 1.04554,-0.128766 1.4082,-0.384766 0.36267,-0.277333 0.57663,-0.649807 0.64063,-1.119141 0.0853,-0.490666 -0.01,-1.025562 -0.28711,-1.601562 l -8.25781,-17.951172 c -0.32,-0.725333 -0.71426,-1.248359 -1.1836,-1.568359 -0.46933,-0.341334 -1.01219,-0.511719 -1.63086,-0.511719 z m 16.79883,0.224609 c -0.81067,0 -1.4288,0.212005 -1.85547,0.638672 -0.42666,0.426667 -0.64062,1.056672 -0.64062,1.888672 v 17.568359 c 0,0.789334 0.21396,1.407469 0.64062,1.855469 0.448,0.448 1.07801,0.671875 1.88867,0.671875 h 11.00782 c 0.68266,0 1.20569,-0.180302 1.56836,-0.542969 0.384,-0.362666 0.57421,-0.885692 0.57421,-1.568359 0,-0.661333 -0.19021,-1.174443 -0.57421,-1.537109 -0.36267,-0.362667 -0.8857,-0.542969 -1.56836,-0.542969 h -8.57618 V 46.044922 c 0,-0.832 -0.21395,-1.462005 -0.64062,-1.888672 -0.42667,-0.426667 -1.03489,-0.638672 -1.82422,-0.638672 z m 18.33594,0 c -0.81067,0 -1.4288,0.212005 -1.85547,0.638672 -0.42667,0.426667 -0.64063,1.056672 -0.64063,1.888672 v 17.568359 c 0,0.789334 0.21396,1.407469 0.64063,1.855469 0.448,0.448 1.078,0.671875 1.88867,0.671875 h 11.00781 c 0.68267,0 1.2057,-0.180302 1.56836,-0.542969 0.384,-0.362666 0.57618,-0.885692 0.57618,-1.568359 0,-0.661333 -0.19218,-1.174443 -0.57618,-1.537109 -0.36266,-0.362667 -0.88569,-0.542969 -1.56836,-0.542969 h -8.57617 V 46.044922 c 0,-0.832 -0.21396,-1.462005 -0.64062,-1.888672 -0.42667,-0.426667 -1.03489,-0.638672 -1.82422,-0.638672 z m 18.43164,0.06445 c -0.832,0 -1.47192,0.223875 -1.91992,0.671875 -0.448,0.448 -0.67188,1.087922 -0.67188,1.919922 v 17.375 c 0,0.832 0.22388,1.471922 0.67188,1.919922 0.448,0.448 1.08792,0.671875 1.91992,0.671875 h 11.16992 c 0.64,0 1.11945,-0.158516 1.43945,-0.478516 0.34134,-0.341333 0.51172,-0.832656 0.51172,-1.472656 0,-0.618667 -0.17038,-1.088203 -0.51172,-1.408203 -0.32,-0.341333 -0.79945,-0.511719 -1.43945,-0.511719 H 189.375 v -5.632812 h 8.28906 c 0.66134,0 1.15071,-0.160469 1.47071,-0.480469 0.34133,-0.341333 0.51171,-0.830703 0.51171,-1.470703 0,-0.64 -0.17038,-1.119453 -0.51171,-1.439453 -0.32,-0.341334 -0.80937,-0.513672 -1.47071,-0.513672 H 189.375 v -5.279297 h 9.02539 c 0.64,0 1.11945,-0.160469 1.43945,-0.480469 0.34134,-0.341333 0.51172,-0.830703 0.51172,-1.470703 0,-0.618667 -0.17038,-1.088203 -0.51172,-1.408203 -0.32,-0.341333 -0.79945,-0.511719 -1.43945,-0.511719 z m -53.63086,5.279297 h 0.0644 l 3.59961,8.511719 h -7.23633 z"
       transform="translate(138.91423,166.3905)" />
    <path
       style="fill:none;stroke:#000000;stroke-width:0.799916px;stroke-linecap:butt;stroke-linejoin:miter;stroke-opacity:1"
       d="m 162.60034,196.97673 c 9.12286,-8.94166 9.10685,-1.15871 9.10685,-1.15871 0.39979,-2.46546 -0.53261,-4.38648 0.288,-7.35579"
       id="path136829"
       sodipodi:nodetypes="ccc" />
    <path
       id="text138820"
       style="font-style:normal;font-weight:normal;font-size:37.3333px;line-height:1.25;font-family:sans-serif;opacity:1;mix-blend-mode:normal;fill:url(#linearGradient198774);fill-opacity:1;stroke:#000000;stroke-opacity:1"
       d="m 87.384766,8.7460938 c -2.190221,0 -4.156217,0.3235925 -5.898438,0.9707031 -1.717332,0.6471101 -3.186695,1.5670531 -4.40625,2.7617191 -1.194666,1.169776 -2.114608,2.600525 -2.761719,4.292968 -0.622221,1.667555 -0.933593,3.548007 -0.933593,5.638672 0,2.712887 0.535247,5.075799 1.605468,7.091797 1.070222,2.015998 2.625129,3.585079 4.666016,4.705078 2.065776,1.119999 4.57924,1.679688 7.541016,1.679688 1.368887,0 2.750754,-0.124158 4.144531,-0.373047 1.393776,-0.248889 2.651485,-0.572481 3.771484,-0.970703 0.597333,-0.199111 1.01869,-0.522704 1.267578,-0.970703 0.248889,-0.448 0.375,-0.995468 0.375,-1.642578 v -8.66211 c 0,-0.746666 -0.199434,-1.318575 -0.597656,-1.716797 -0.373333,-0.398222 -0.933021,-0.597656 -1.679687,-0.597656 h -5.861328 c -0.746667,0 -1.320529,0.187214 -1.71875,0.560547 -0.398222,0.348444 -0.597657,0.85925 -0.597657,1.53125 0,0.64711 0.199435,1.155964 0.597657,1.529297 0.398221,0.373333 0.972083,0.560547 1.71875,0.560547 h 3.359374 v 5.15039 c -0.568569,0.162196 -1.138935,0.305662 -1.716796,0.41211 -0.945777,0.174222 -1.867673,0.261718 -2.763672,0.261718 -2.663109,0 -4.677988,-0.722461 -6.046875,-2.166015 -1.343999,-1.443555 -2.017578,-3.570371 -2.017578,-6.382813 0,-1.866665 0.286931,-3.435746 0.859375,-4.705078 0.597332,-1.294221 1.492834,-2.264999 2.6875,-2.912109 1.194665,-0.672 2.676249,-1.007813 4.443359,-1.007813 1.09511,0 2.102549,0.111938 3.023437,0.335938 0.920889,0.199111 1.791949,0.522703 2.613282,0.970703 0.622221,0.298666 1.169689,0.398383 1.642578,0.298828 0.497777,-0.124444 0.896646,-0.372761 1.195312,-0.746094 0.323556,-0.398222 0.52299,-0.845972 0.597657,-1.34375 0.09955,-0.522666 0.04872,-1.009031 -0.150391,-1.457031 C 96.169528,11.370862 95.821494,10.986166 95.298828,10.6875 94.054385,9.9906117 92.760014,9.4920258 91.416016,9.1933594 90.072017,8.894693 88.728764,8.7460938 87.384766,8.7460938 Z m 96.146484,0 c -1.94133,0 -3.72011,0.3235925 -5.33789,0.9707031 -1.59289,0.6471101 -2.96253,1.5670531 -4.10742,2.7617191 -1.14489,1.169776 -2.02817,2.588305 -2.65039,4.255859 -0.59734,1.642665 -0.89649,3.496724 -0.89649,5.5625 0,2.712887 0.53525,5.089972 1.60547,7.130859 1.09511,2.040888 2.61336,3.634409 4.55469,4.779297 1.96622,1.119999 4.24359,1.679688 6.83203,1.679688 1.96622,0 3.745,-0.323593 5.33789,-0.970703 1.59289,-0.647111 2.96253,-1.569007 4.10742,-2.763672 1.14489,-1.194666 2.02817,-2.625415 2.65039,-4.292969 0.62222,-1.667554 0.9336,-3.533833 0.9336,-5.599609 0,-2.712887 -0.54747,-5.077752 -1.64258,-7.09375 -1.07022,-2.040888 -2.57625,-3.620236 -4.51758,-4.740235 -1.94133,-1.1199988 -4.23092,-1.6796872 -6.86914,-1.6796872 z m 27.66406,0 c -1.568,0 -3.01097,0.1974812 -4.33008,0.5957031 -1.29422,0.3982219 -2.41555,0.9720841 -3.36132,1.7187501 -0.94578,0.746666 -1.67851,1.629947 -2.20118,2.650391 -0.52266,1.020443 -0.78515,2.15204 -0.78515,3.396484 0,1.96622 0.57191,3.559742 1.7168,4.779297 1.16977,1.194665 2.95051,2.041285 5.33984,2.539062 l 4.21875,0.894531 c 1.36889,0.298667 2.32744,0.660874 2.875,1.083985 0.54755,0.423111 0.82031,0.99502 0.82031,1.716797 0,0.846221 -0.38469,1.556462 -1.15625,2.128906 -0.77155,0.547555 -2.06592,0.820312 -3.88281,0.820312 -1.19467,0 -2.40154,-0.136378 -3.6211,-0.410156 -1.19466,-0.273777 -2.30377,-0.697087 -3.32421,-1.269531 -0.59734,-0.298666 -1.1448,-0.386163 -1.64258,-0.261719 -0.47289,0.09956 -0.86981,0.347872 -1.19336,0.746094 -0.29867,0.373333 -0.48588,0.808863 -0.56055,1.306641 -0.0498,0.497777 0.0377,0.996363 0.26172,1.49414 0.224,0.472889 0.6087,0.859537 1.15625,1.158203 0.77156,0.448 1.64262,0.820475 2.61328,1.119141 0.99556,0.298666 2.02939,0.522542 3.09961,0.671875 1.09511,0.174222 2.16561,0.261719 3.21094,0.261719 1.64266,0 3.1223,-0.187214 4.4414,-0.560547 1.31911,-0.398222 2.45267,-0.95791 3.39844,-1.679688 0.94578,-0.721777 1.66629,-1.580617 2.16406,-2.576172 0.49778,-1.020443 0.74805,-2.15204 0.74805,-3.396484 0,-1.891554 -0.5983,-3.409799 -1.79297,-4.554687 -1.19466,-1.169777 -3.01206,-2.016397 -5.45117,-2.539063 l -4.2168,-0.896484 c -1.29422,-0.273778 -2.20389,-0.634032 -2.72656,-1.082032 -0.52266,-0.447999 -0.7832,-1.034082 -0.7832,-1.755859 0,-0.64711 0.18526,-1.219019 0.55859,-1.716797 0.39822,-0.497777 0.95987,-0.882472 1.68164,-1.15625 0.74667,-0.273777 1.64217,-0.412109 2.6875,-0.412109 0.97067,0 1.91701,0.09972 2.83789,0.298828 0.92089,0.199111 1.79195,0.510483 2.61329,0.933594 0.67199,0.323555 1.2439,0.435493 1.71679,0.335937 0.47289,-0.09956 0.85759,-0.323431 1.15625,-0.671875 0.32356,-0.348444 0.51077,-0.747313 0.56055,-1.195312 0.0747,-0.472889 0.0136,-0.93286 -0.18555,-1.38086 -0.17422,-0.472888 -0.51003,-0.857583 -1.00781,-1.15625 -1.02044,-0.64711 -2.20288,-1.1334756 -3.54688,-1.4570309 -1.34399,-0.3484441 -2.71364,-0.5214843 -4.10742,-0.5214843 z m -97.90234,0.074219 c -0.72178,0 -1.35674,0.1994344 -1.9043,0.5976563 -0.54755,0.373333 -1.01974,0.9819029 -1.41797,1.8281249 l -9.55664,20.945312 c -0.32355,0.672 -0.43549,1.28057 -0.33594,1.828125 0.12445,0.547555 0.39721,0.983086 0.82032,1.306641 0.448,0.323555 1.02186,0.486328 1.71875,0.486328 0.79644,0 1.39279,-0.187214 1.79101,-0.560547 0.42311,-0.398222 0.82198,-1.033186 1.19532,-1.904297 l 1.51953,-3.583984 h 12.31445 l 1.54688,3.583984 c 0.34844,0.846222 0.74731,1.468966 1.19531,1.867188 0.47289,0.398222 1.13229,0.597656 1.97851,0.597656 0.672,0 1.21947,-0.150552 1.64258,-0.449219 0.42311,-0.323555 0.67143,-0.759085 0.7461,-1.30664 0.0995,-0.572444 -0.0124,-1.193235 -0.33594,-1.865235 l -9.63282,-20.945312 c -0.37333,-0.846222 -0.8333,-1.4547919 -1.38085,-1.8281249 -0.54756,-0.3982219 -1.18252,-0.5976563 -1.9043,-0.5976563 z m 19.59961,0.2617187 c -0.94578,0 -1.66629,0.2483164 -2.16406,0.7460938 -0.49778,0.4977767 -0.7461,1.2324587 -0.7461,2.2031247 v 20.496094 c 0,0.920888 0.24832,1.641396 0.7461,2.164062 0.52266,0.522666 1.25734,0.785156 2.20312,0.785156 h 12.8418 c 0.79644,0 1.40696,-0.211654 1.83008,-0.634765 0.448,-0.423111 0.67187,-1.033634 0.67187,-1.830078 0,-0.771555 -0.22387,-1.367905 -0.67187,-1.791016 -0.42312,-0.423111 -1.03364,-0.634765 -1.83008,-0.634765 H 135.76758 V 12.03125 c 0,-0.970666 -0.24832,-1.705348 -0.7461,-2.203125 -0.49777,-0.4977774 -1.20801,-0.7460938 -2.1289,-0.7460935 z m 21.39258,0 c -0.94578,0 -1.66629,0.2483164 -2.16407,0.7460938 -0.49777,0.4977767 -0.74804,1.2324587 -0.74804,2.2031247 v 20.496094 c 0,0.920888 0.25027,1.641396 0.74804,2.164062 0.52267,0.522666 1.2554,0.785156 2.20118,0.785156 h 12.84375 c 0.79644,0 1.40501,-0.211654 1.82812,-0.634765 0.448,-0.423111 0.67188,-1.033634 0.67188,-1.830078 0,-0.771555 -0.22388,-1.367905 -0.67188,-1.791016 -0.42311,-0.423111 -1.03168,-0.634765 -1.82812,-0.634765 H 157.16016 V 12.03125 c 0,-0.970666 -0.24832,-1.705348 -0.7461,-2.203125 -0.49777,-0.4977774 -1.20802,-0.7460938 -2.1289,-0.7460935 z m 29.24609,4.5917965 c 2.21511,0 3.93279,0.759123 5.15234,2.277344 1.21956,1.493332 1.83008,3.607928 1.83008,6.345703 0,1.791998 -0.28693,3.348859 -0.85937,4.667969 -0.54756,1.294221 -1.34334,2.28944 -2.38868,2.986328 -1.02044,0.671999 -2.26593,1.007812 -3.73437,1.007812 -2.19022,0 -3.89568,-0.759122 -5.11523,-2.277343 -1.21956,-1.54311 -1.82813,-3.671879 -1.82813,-6.384766 0,-1.816887 0.27276,-3.371795 0.82031,-4.666016 0.54756,-1.294221 1.3453,-2.277219 2.39063,-2.949218 1.04533,-0.672 2.28887,-1.007813 3.73242,-1.007813 z m -70.3125,1.642578 h 0.0742 l 4.19922,9.929688 h -8.44141 z"
       transform="translate(138.91423,166.3905)"
       inkscape:export-filename="/home/gusdev028/Desktop/main/projects/udesc/pin_2/los-gallos-musicales-frontend/src/assets/new-logo.png"
       inkscape:export-xdpi="96"
       inkscape:export-ydpi="96" />
  </g>
</svg>
